<?xml version="1.0" encoding="utf-8"?>
<!-- Generator: Adobe Illustrator 27.0.0, SVG Export Plug-In . SVG Version: 6.00 Build 0)  -->
<svg version="1.1" id="g" xmlns="http://www.w3.org/2000/svg" xmlns:xlink="http://www.w3.org/1999/xlink" x="0px" y="0px"
	 viewBox="0 0 183.98 194.24" style="enable-background:new 0 0 183.98 194.24;" xml:space="preserve">
<path d="M3.96,72.2C14.78,36.25,45.82,6.77,80.85,1.09c28.32-4.59,61.66,6,64.11,18.11c0.37,1.82,0.57,6.29-1.93,10.2
	c-2.96,4.63-8.5,6.76-13.07,6.47c-2.49-0.16-2.3-0.93-9-3.89c-0.46-0.2-8.87-3.88-15.33-5.11c-3.63-0.69-7.22-0.89-7.22-0.89
	s-0.56-0.03-1.11-0.05c-8.41-0.29-18.89,2.6-18.89,2.6c-8.21,2.53-14.54,5.28-16.56,6.33c-14.14,7.39-36.25,32.16-36.84,65.48
	c-0.11,6.09-0.64,36.33,22.34,55.69C60.36,167.01,74.6,169.17,79,169.69c22.12,2.58,38.41-8.31,46.81-13.93
	c0,0,17.78-11.89,29.33-37.63c0.7-1.56,2.32-5.26,0.88-6.79c-1.04-1.1-3.2-0.57-4.43-0.32c-6.53,1.33-14.86,0.26-18.37-2.37
	c-4.96-3.73-6.21-15.08-1.48-19.85c4.93-4.98,12.56,1.06,32.35-0.84c7.23-0.69,10.98-3.89,14.76-1.53c4.67,2.92,4.97,10.46,5.11,14
	c0.17,4.24-0.54,7.86-4.52,19.48c-2.93,8.56-4.39,12.84-5.93,16.3c-6.6,14.88-17.36,27.16-24.3,33.48
	c-22.77,20.72-67.56,34.62-103.41,15.41c-17.43-9.34-26.51-23.17-30.74-29.78C-8.96,117.8,2.62,76.66,3.96,72.2z"/>
<path d="M91.29,30.2c-3.48,2.03-3.99,6.64-4.67,15.56c-1.55,20.34-1.25,27.33-1.25,42.45c0,12.18-0.19,16.52,3.3,19.36
	c3.91,3.18,10.87,3.19,14.62-0.04c3.37-2.9,2.77-7.22,2.78-19.92c0.01-8.99,0.58-17.98,0.78-26.97c0.45-20.17,1.02-24.51-2.67-28
	C100.77,29.42,94.94,28.08,91.29,30.2z"/>
</svg>
