<?xml version="1.0" encoding="utf-8"?>
<!-- Generator: Adobe Illustrator 27.0.0, SVG Export Plug-In . SVG Version: 6.00 Build 0)  -->
<svg version="1.1" xmlns="http://www.w3.org/2000/svg" xmlns:xlink="http://www.w3.org/1999/xlink" x="0px" y="0px"
	 viewBox="0 0 970.55 194.24" style="enable-background:new 0 0 970.55 194.24;" xml:space="preserve">
<g id="g">
	<path d="M3.96,72.2C14.78,36.25,45.82,6.77,80.85,1.09c28.32-4.59,61.66,6,64.11,18.11c0.37,1.82,0.57,6.29-1.93,10.2
		c-2.96,4.63-8.5,6.76-13.07,6.47c-2.49-0.16-2.3-0.93-9-3.89c-0.46-0.2-8.87-3.88-15.33-5.11c-3.63-0.69-7.22-0.89-7.22-0.89
		s-0.56-0.03-1.11-0.05c-8.41-0.29-18.89,2.6-18.89,2.6c-8.21,2.53-14.54,5.28-16.56,6.33c-14.14,7.39-36.25,32.16-36.84,65.48
		c-0.11,6.09-0.64,36.33,22.34,55.69C60.36,167.01,74.6,169.17,79,169.69c22.12,2.58,38.41-8.31,46.81-13.93
		c0,0,17.78-11.89,29.33-37.63c0.7-1.56,2.32-5.26,0.88-6.79c-1.04-1.1-3.2-0.57-4.43-0.32c-6.53,1.33-14.86,0.26-18.37-2.37
		c-4.96-3.73-6.21-15.08-1.48-19.85c4.93-4.98,12.56,1.06,32.35-0.84c7.23-0.69,10.98-3.89,14.76-1.53c4.67,2.92,4.97,10.46,5.11,14
		c0.17,4.24-0.54,7.86-4.52,19.48c-2.93,8.56-4.39,12.84-5.93,16.3c-6.6,14.88-17.36,27.16-24.3,33.48
		c-22.77,20.72-67.56,34.62-103.41,15.41c-17.43-9.34-26.51-23.17-30.74-29.78C-8.96,117.8,2.62,76.66,3.96,72.2z"/>
	<path d="M91.29,30.2c-3.48,2.03-3.99,6.64-4.67,15.56c-1.55,20.34-1.25,27.33-1.25,42.45c0,12.18-0.19,16.52,3.3,19.36
		c3.91,3.18,10.87,3.19,14.62-0.04c3.37-2.9,2.77-7.22,2.78-19.92c0.01-8.99,0.58-17.98,0.78-26.97c0.45-20.17,1.02-24.51-2.67-28
		C100.77,29.42,94.94,28.08,91.29,30.2z"/>
</g>
<g id="a">
	<path d="M262.41,88.28c-3.34-9.47-22.92-12.51-36.74-9.85c-26.76,5.15-53.66,35.89-49.26,68c0.21,1.53,4.61,30.17,29.33,41.56
		c1.59,0.73,17.17,7.65,34,2.67c8.69-2.57,17-5.03,22.22-12.22c1.25-1.72,3.02-4.67,5.56-4.67c2.59,0,3.51,3.08,8.44,7.78
		c3.81,3.62,6.53,6.21,10,6c3.41-0.21,6.63-3.07,7.72-6.42c1.44-4.41-1.21-8.39-2.12-9.75c-4.12-6.19-9.55-4.64-12.28-9.16
		c-2.53-4.21,0.64-8.1,3.33-19.56c1.76-7.48,3.59-15.51,2-24.67c-0.71-4.11-2.71-15.61-10.89-18.74c-3.06-1.17-7.03-1.19-10.44,0.52
		c-4.76,2.38-6.37,7.06-6.81,8.37c-1.64,4.79-0.19,7.97,0.67,14.37c0.37,2.74,1.57,11.3-0.3,18.81
		c-3.25,13.05-14.36,19.9-14.89,20.22c-2.85,1.7-11.96,7.14-22.44,3.78c-12.05-3.86-16.1-16.22-16.44-17.33
		c-4.98-16.07,7.47-33.62,20.44-40.44c8.83-4.64,17.56-4,17.56-4c7.53,0.26,10.48,2.97,14.6,1.05
		C260.94,102.13,264.36,93.82,262.41,88.28z"/>
</g>
<g id="r">
	<path d="M281.66,93.83c2.61,1.52,4.47,1.64,6.84,2.35c0,0,3.55,1.06,8.93,4.98c9.44,6.87,10.71,45.37,2,71.78
		c-0.82,2.48-3.06,8.91,0,13.33c2.46,3.55,8.03,5.39,12.13,4.08c5.33-1.71,7.66-8.57,11.57-28.67c6.19-31.79,6.08-43.91,15.11-51.26
		c2.55-2.08,8.16-6.65,14.81-5.93c4.02,0.44,5.41,2.48,8.58,1.84c4.9-0.99,9.53-7.44,8.6-13.1c-1.19-7.26-10.97-9.82-14.22-10.67
		c-11.49-3.01-21.24,2.74-23.38,4c-5.5,3.25-8.9,7.36-10.7,9.92c-0.8-2.34-2.3-5.9-5.11-9.57c-6.77-8.83-17.01-12.83-25.7-13.24
		c-4.5-0.21-9.24-0.44-12.44,2.96c-3.22,3.42-3.93,9.48-1.48,13.33C278.48,91.97,280.41,93.1,281.66,93.83z"/>
</g>
<g id="m">
	<path d="M388.85,189.09c6.2-3.79,6.29-12.38,6.28-13.29c-1.73-4.22-4.28-11.54-5.17-20.93c-1.54-16.28,1.75-40.5,13.11-44
		c3.84-1.18,8.91-0.1,11.67,2.78c1.16,1.21,2.2,3.03,2.89,11.44c0.58,7.09,0.4,12.58,0.33,14.89c-0.22,7.07,0.37-8.81-0.33,17.89
		c-0.5,18.71-0.71,23.58,3,27.56c0.68,0.73,3.07,3.23,6.67,3.56c4.28,0.39,8.2-2.48,10.11-5.56c1.53-2.45,1.69-4.87,1.78-6.89
		c0.43-9.73-0.44-17.71-0.56-18.78c-0.91-8.44,0.37-5.22-0.33-21.89c-0.17-4.1-0.63-13.35,3.44-18.78c0.75-1,1.67-1.89,1.67-1.89
		c0.94-0.91,4.4-4.18,9.78-4.67c0.72-0.06,3.62-0.27,6.33,0.78c6.47,2.51,8.66,10.97,10.11,16.56c2.44,9.41,1.78,17.11,0.67,30.11
		c-0.45,5.2-0.69,7.87-1.67,11c-1.28,4.1-2.56,5.58-2.67,9.11c-0.04,1.42-0.17,5.48,2.33,8.33c2.92,3.33,8.53,4.02,12.18,2.83
		c10.45-3.42,12.06-24.73,12.99-36.94c1.3-17.15-1.71-29.9-3.5-36.1c-3.63-12.56-8.42-19.61-9.63-21.33
		c-4.43-6.34-8.25-11.8-15.56-14.52c-11.18-4.16-21.94,1.32-24.3,2.52c-5.18,2.64-8.64,6.08-10.67,8.44
		c-2.93-3.07-12.05-11.79-25.63-12.67c-3.04-0.2-9.05-0.51-15.33,2.67c-5.71,2.9-9.71,7.71-13.56,15.33
		c-6.73,13.35-9.87,29.17-9.56,48c0.23,13.73,0.68,41.3,12.67,45.56C381.29,191.23,385.5,191.14,388.85,189.09z"/>
</g>
<g id="i">
	<path d="M515.08,47.02c8.82,0.24,15.43,8.38,15.44,16.74c0.01,8.86-7.37,17.26-16.56,16.89c-8.72-0.35-15.23-8.45-15.22-16.78
		C498.75,55.14,505.93,46.77,515.08,47.02z"/>
	<path d="M512.85,85.09c4.46-0.06,7.69,3.72,8.89,5.11c7.55,8.81,2.2,25.4,0.67,47.33c-2.12,30.32,4.89,44.53-3.95,50.38
		c-4.14,2.74-10.67,2.93-14.28,0.07c-4.2-3.34-3.65-10.21-3.33-15.56c1.07-18.17,2.64-44.69,0.67-64.22
		c-0.44-4.35-1.52-13.02,3.56-18.89C505.75,88.54,508.68,85.15,512.85,85.09z"/>
</g>
<g id="n">
	<path d="M534.41,143.31c-1.05,27.98-0.9,39.92,6.89,44.89c3.41,2.18,8.5,3.14,12,1.11c3.78-2.2,5.12-7.54,4.67-27.56
		c-0.19-8.45-0.89-27.82,0.68-46.63c0.43-5.1,1.18-10.17,5.09-13.15c4.93-3.76,13.35-2.95,18.22,1c1.88,1.52,5.79,5.59,5.22,25.78
		c-0.41,14.42-3.07,35.74-1.89,50.33c0.12,1.47,0.47,5.19,3.16,8.17c2.79,3.1,7.92,5.22,12.4,3.6c3.14-1.14,4.77-3.69,6-5.67
		c2.8-4.52,3.03-8.81,3.33-15.22c0.65-13.57,0.97-20.4,0.96-22.15c-0.03-6.81-0.05-11.88-0.52-18.52
		c-1.09-15.35-1.55-23.06-5.11-31.33c-2.65-6.17-7.34-17.07-18-22.44c-14.59-7.35-35.1-1.7-45.78,10.22
		C538.29,89.61,536.27,93.67,534.41,143.31z"/>
</g>
<g id="f">
	<path d="M685.74,28.65c-10.1-6.66-27.46-3.11-37.48,6.59c-7.95,7.69-9.85,17.86-11.41,26.19c-1.45,7.77-1.29,14.36-0.9,18.75
		c-5.55,0.01-11.1,0.02-16.65,0.03c-4.2,1.36-7.35,4.8-8.22,9c-0.81,3.88,0.33,8.43,3.33,10.85c1.48,1.2,2.92,1.48,11.48,2.07
		c3.75,0.26,6.99,0.45,9.56,0.59c0.15,9.87-0.05,18.16-0.3,24.3c-0.77,19.51-0.86,27.03-1.04,42.07
		c-0.12,10.12-0.1,18.91,5.19,22.37c3.51,2.3,7.7,1.93,7.7,1.93c0.58-0.05,4.54-0.46,7.41-3.41c2.71-2.8,3-6.39,3.11-16.3
		c0.09-7.52,0.13-11.28,0-14.07c-0.52-11.2,0.27-10.79,0.44-34.52c0.04-5.4,0.06-13.27-0.07-22.89c2.55,0.21,6.09,0.38,10.3,0.22
		c8.82-0.33,13.23-0.5,15.85-3.26c4.24-4.46,3.72-13.89-0.59-17.33c-1.89-1.51-3.73-1.25-11.7-1.33c-5.83-0.06-10.6-0.25-13.78-0.41
		c-0.09-5.52,0.38-10.1,0.89-13.44c1.12-7.38,2.67-10.52,3.33-11.78c1.68-3.16,3.29-6.19,6.46-7.08c2.61-0.73,5.51,0.21,8.54,1.19
		c2.57,0.83,2.49,1.21,4.14,1.52c0.84,0.16,5.23,0.99,8.64-1.74c3.68-2.96,3.49-7.92,3.44-8.78
		C693.02,33.45,686.85,29.38,685.74,28.65z"/>
</g>
<g id="a_00000007387091125737570920000004514128507636510096_">
	<path d="M759.91,88.28c-3.34-9.47-22.92-12.51-36.74-9.85c-26.76,5.15-53.66,35.89-49.26,68c0.21,1.53,4.61,30.17,29.33,41.56
		c1.59,0.73,17.17,7.65,34,2.67c8.69-2.57,17-5.03,22.22-12.22c1.25-1.72,3.02-4.67,5.56-4.67c2.59,0,3.51,3.08,8.44,7.78
		c3.81,3.62,6.53,6.21,10,6c3.41-0.21,6.63-3.07,7.72-6.42c1.44-4.41-1.21-8.39-2.12-9.75c-4.12-6.19-9.55-4.64-12.28-9.16
		c-2.53-4.21,0.64-8.1,3.33-19.56c1.76-7.48,3.59-15.51,2-24.67c-0.71-4.11-2.71-15.61-10.89-18.74c-3.06-1.17-7.03-1.19-10.44,0.52
		c-4.76,2.38-6.37,7.06-6.81,8.37c-1.64,4.79-0.19,7.97,0.67,14.37c0.37,2.74,1.57,11.3-0.3,18.81
		c-3.25,13.05-14.36,19.9-14.89,20.22c-2.85,1.7-11.96,7.14-22.44,3.78c-12.05-3.86-16.1-16.22-16.44-17.33
		c-4.98-16.07,7.47-33.62,20.44-40.44c8.83-4.64,17.56-4,17.56-4c7.53,0.26,10.48,2.97,14.6,1.05
		C758.45,102.13,761.87,93.82,759.91,88.28z"/>
</g>
<g id="c">
	<path d="M863,100.94c-6.15,1.73-10.42-0.23-16.59-0.89c0,0-6.9-0.73-13.63,0.89c-13.16,3.17-28.32,24.48-21.59,43.61
		c4.42,12.56,17.4,21.65,29,21.87c10.24,0.2,16.11-6.52,22.52-2.96c4.88,2.71,8.03,10.4,5.93,15.11
		c-5.16,11.53-46.95,16.63-69.04-6.22c-18.58-19.22-15.64-50.39-3.56-69.63c1.16-1.85,15.06-23.25,39.11-25.78
		c13.35-1.4,30.56,2.92,33.48,11.56c0.19,0.56,2.01,6.2-0.89,9.78C867.09,99.08,865.92,100.12,863,100.94z"/>
</g>
<g id="e">
	<path d="M892.74,135.43c4.24,6.89,18.53,4.25,45.37,3.89c20.13-0.27,26.09,1.03,29.93-3.85c4.9-6.23,1.5-16.39-0.59-22.67
		c-6.42-19.22-22.5-28.54-24.44-29.63c-2.72-1.52-19.66-10.65-40.44-4.89c-26.39,7.31-35.92,32.23-37.19,35.7
		c-1.81,4.97-8.61,25.86,2.67,45.63c7.45,13.05,18.88,18.77,24.59,21.63c3.22,1.61,20.61,9.97,40.69,5.46
		c3.81-0.86,10.42-2.78,16.79-7.83c3.92-3.11,8.95-7.09,8.59-12.3c-0.31-4.41-4.42-8.74-9.04-10.07c-8.99-2.6-13.28,8.08-27.04,9.63
		c-13.18,1.48-23.14-6.76-24.07-7.55c-7.59-6.47-9.72-14.77-10.52-18.07c-0.72-2.98-3.85-15.91,4.15-27.56
		c4.98-7.25,11.81-10.44,15.26-11.7c0.86-0.31,18.54-6.5,30.81,4.44c4.76,4.24,6.8,9.37,7.7,12.3c-10.52-0.15-21.04-0.3-31.56-0.44
		c-3.48,0.19-6.96,0.37-10.44,0.56c-1.4,0.02-5.66,0.25-9.22,3.44c-0.87,0.78-3.13,2.81-3.74,6.07
		C891,127.61,890.28,131.43,892.74,135.43z"/>
</g>
</svg>
