<?xml version="1.0" encoding="utf-8"?>
<!-- Generator: Adobe Illustrator 27.0.0, SVG Export Plug-In . SVG Version: 6.00 Build 0)  -->
<svg version="1.1" xmlns="http://www.w3.org/2000/svg" xmlns:xlink="http://www.w3.org/1999/xlink" x="0px" y="0px"
	 viewBox="0 0 928.07 304.75" style="enable-background:new 0 0 928.07 304.75;" xml:space="preserve">
<g id="w">
	<path d="M93.46,9.93c-10.93-3.02-42.44,34.87-66.81,90.52c-12.91,29.48-40.64,92.78-18.11,112.37c6.51,5.66,14.95,5.67,20.18,5.68
		c29.85,0.03,59.09-29.2,76.79-72.05c-8.53,26.55-4.38,51.04,10.03,61.56c13.17,9.62,31.15,4.81,41.33,2
		c13.6-3.76,39.92-14.12,81.04-71.63c9.37-13.1,67.5-94.4,49.48-130.37c-1.02-2.03-4-7.98-8-8c-8.4-0.04-13.1,26.03-20.44,49.19
		c-1.59,5.03-22.64,68.97-73.48,112c-11.25,9.52-33.31,28.2-44.7,21.63c-11.93-6.88-7.87-38.98-1.89-58.15
		c5.82-18.62,19.34-43.89,22.3-49.41c6.5-12.14,14.03-24.73,9.43-30.37c-2.07-2.53-5.77-2.66-7.11-2.71
		c-11.98-0.41-21.73,13.17-30.47,25.67C115.2,93.34,98.44,118.9,94.2,125.33c-7.88,11.96-16.68,24.94-30.81,39.56
		c-8.08,8.35-19.87,20.54-24.3,17.93c-1.43-0.84-3.8-4.23,5.93-35.56C52.05,124.6,57.1,108.34,68.42,86
		c8.95-17.66,15.37-36.65,25.56-53.63c1.97-3.28,8.17-13.41,4.44-19.11C98.42,13.26,96.86,10.86,93.46,9.93z"/>
</g>
<g id="o">
	<path d="M293.91,157.63c-0.46-2.83-2-12.32-10.22-17.93c-1.33-0.9-5.55-3.7-11.41-3.75c-3.83-0.03-7.93,1.13-14.22,5.52
		c-10.1,7.06-16.02,15.59-18.81,19.85c-11.67,17.81-20.82,31.78-15.42,44.38c0.5,1.16,3.39,7.61,10.09,10.74
		c16.19,7.57,38.35-11.9,47.26-22.37c7.89-9.28,10.61-17.66,11.7-22.07C293.77,168.36,294.88,163.65,293.91,157.63z M280.65,170.89
		c-0.62,6-3.77,10.82-5.78,13.89c-2.8,4.28-5.78,7.06-7.89,9c-2.09,1.92-5.33,4.87-10.33,7.44c-4.01,2.07-7.44,3.77-11.67,3
		c-1.53-0.28-3.66-0.67-4.89-2.11c-1.2-1.41-3.28-5.85,13.33-32.22c12.7-20.17,15.76-20.49,17.22-20.33
		C276.63,150.21,281.59,161.76,280.65,170.89z"/>
</g>
<g id="n">
	<path d="M321.9,140.64c-2.29,2.03-3.08,4.59-3.26,5.14c-0.02,0.08-4.24,9.24-12.67,27.56c-7.89,17.15-15.75,23.24-12.75,28.04
		c1.16,1.85,3.52,2.86,5.42,2.85c4.22-0.03,7.19-5.04,10-9.56c5.44-8.73,10.38-16.66,14.89-21.78c8.75-9.92,21.71-15.85,24.22-13.33
		c1.18,1.19-0.59,3.62-2.44,9.56c-1.27,4.06-6.83,21.82,0.89,33.33c0.84,1.25,4.3,6.41,10.22,7.33c5.47,0.86,11.66-2.11,11.72-4.7
		c0.05-2.08-3.91-2.07-6.83-5.53c-6.49-7.7-0.14-23.59,0.67-25.56c3.62-8.79,7.48-10.05,7.56-16.44c0.05-4.13-1.48-10.35-6-13.11
		c-9.03-5.51-24.62,6.08-27.11,8c-4.76,3.66-8.51,8.04-9.24,7.46c-1.12-0.9,8.32-11.11,5.11-18.08c-0.23-0.51-1.34-2.75-3.59-3.44
		C325.55,137.41,322.41,140.18,321.9,140.64z"/>
</g>
<g id="d">
	<path d="M492.35,89.63c-0.51-0.99-1.14-2.2-2.44-2.67c-9.01-3.26-32.16,35.41-45.48,65.7c-2.14,4.88-3.71,8.81-4.44,10.67
		c-1.15-1.92-2.99-4.33-5.88-6.15c-12.32-7.72-30.63,3.75-33.75,5.7c-13.41,8.4-28.52,26.15-23.26,37.28
		c3.36,7.11,13.66,8.58,15.38,8.83c16.24,2.32,34.06-10.37,46.4-31.44c-1.81,6.26-1.68,11.4-1.33,14.61
		c0.51,4.64,0.98,9.01,4.39,11.39c3.2,2.24,8.34,2.27,9.78,0.11c1.51-2.26-1.35-6.48-2.31-8.19c-8.95-15.94,14.05-51.99,20.81-62.59
		C484.21,110.93,497.01,98.58,492.35,89.63z M414.65,189.78c-3.82,2.02-16.28,8.61-19.41,5.04c-2.57-2.94,1.98-11.88,7.41-17.33
		c9.36-9.4,23.5-10.67,24.74-8.3c0.45,0.86-0.82,2.19,0,3.75c0.82,1.55,2.63,1.26,3.11,2.17
		C431.62,177.23,424.76,184.43,414.65,189.78z"/>
</g>
<g id="e">
	<path d="M545.09,167.78c-0.63-0.82-2.53-0.56-6.01,0.64c-11.32,3.9-16.76,9.95-23.55,14.69c-8.71,6.09-23.59,12.78-29.11,8
		c-1.23-1.07-3.62-4.1-1.56-13.56c1.95-0.23,4.94-0.71,8.44-1.78c4.14-1.26,18.57-5.67,24.74-18.44c0.92-1.9,5.36-11.1,1.26-16.67
		c-2.9-3.94-8.67-4.17-10.22-4.22c-23.16-0.78-53.87,43.24-43.11,62.55c3.49,6.26,10.31,8.51,13.11,9.45
		c21.58,7.24,44.17-14.34,52.89-22.67C537.97,180.06,546.85,170.07,545.09,167.78z M505.46,146.22c0.68-0.13,2.28-0.45,3.41,0.44
		c1.3,1.04,1.2,3.09,1.19,3.41c-0.21,4.33-5.6,7.78-8.3,9.48c-0.99,0.63-9.96,6.29-11.7,4.3
		C488.04,161.56,499.41,147.42,505.46,146.22z"/>
</g>
<g id="r">
	<path d="M552.87,139.26c-2.37,3.96,6.61,8.99,6.22,18.07c-0.16,3.75-2.72,7.73-7.85,15.7c-3.54,5.51-4.38,5.71-6.81,10.07
		c-3.11,5.57-6.91,12.39-4.44,15.56c2.07,2.66,7.82,1.81,11.26,0.44c6.02-2.4,8.97-8.04,10.96-11.85c3.81-7.29,2.41-10.12,6.37-15.7
		c0.56-0.79,2.39-3.27,8.08-7.44c8.33-6.1,19.69-14.43,34.61-15.51c4.29-0.31,10.05-0.11,10.64-2.23c0.36-1.29-1.37-2.82-1.88-3.27
		c-7.14-6.32-24.87-2.13-37.09,4.16c-5.74,2.95-10.09,6.28-13.11,8.9c0.67-9.64-3.4-17.13-9-18.68
		C558.27,136.77,554.22,137,552.87,139.26z"/>
</g>
<g id="f">
	<path d="M721.53,50c-3.98-1.19-3.87-6.46-6-7.11c-3.08-0.94-11.89,7.46-26.89,46c-5.39,13.84-12.23,33.24-18.44,57.33
		c7.18-0.44,12.77-0.95,16.59-1.33c3.8-0.38,6.84-0.74,8.74,1.19c1.49,1.52,1.96,4.13,1.33,6.22c-0.33,1.12-1.63,4.28-14.96,8.3
		c-3.55,1.07-8.69,2.42-15.09,3.42c-3.13,10.09-7.82,24.54-14.17,41.76c-6.74,18.27-11.11,30-18.67,44.67
		c-9.95,19.29-16.49,31.64-30.44,42c-8.92,6.62-25.94,16.19-32.89,10.65c-3.08-2.46-4.42-8.1-2.44-10.87
		c2.08-2.92,7.34-1.99,10.44-2c15.48-0.07,28.5-24.02,37.59-40.76c7.55-13.89,11.94-25.71,20.41-48.8
		c5.29-14.41,9.36-26.48,12.11-34.89c-3.62,0.47-8.51,1.02-14.33,1.44c-11.58,0.84-13.73,0.2-15.11-1.33
		c-2.48-2.76-2.34-8.35,0.22-11.67c2.75-3.56,7.22-3.15,18.96-4.59c6.83-0.84,12.3-1.84,15.7-2.52c6.08-16.43,10.81-29.65,13.78-38
		c7.61-21.44,21-59.93,38.81-73.26c2.38-1.78,8.12-5.95,14.77-4.83c1.06,0.18,6.6,1.11,8.78,5.87c1.69,3.69,0.92,8.74-2.37,11.41
		C727.63,48.58,724.64,50.93,721.53,50z"/>
</g>
<g id="a">
	<path d="M750.5,149.63c-0.76-2.63-3.24-5.09-5.72-5.64c-11.84-2.65-34.16,35.86-28.06,42.09c1.78,1.82,6.04,0.94,7.7,0.59
		c5.4-1.12,11.09-5.6,12.48-6.7c1.13-0.89,2.27-1.87,2.63-1.6c0.68,0.52-1.98,4.97-2.37,5.63c-1.36,2.26-3.63,5.96-7.87,9.46
		c-2.74,2.26-12.96,10.71-22.06,7.43c-5.96-2.15-8.68-8.34-9.19-9.48c-7.86-17.87,11.64-44.19,29.04-56
		c8.22-5.58,14.84-7.16,20.74-6.52c2.47,0.27,7.58,0.83,11.26,5.04c3.01,3.44,3.47,7.49,3.56,9.19c1.14,0.08,2.62,0.38,3.56,1.48
		c2.35,2.76-0.91,7.97-3.56,16.89c-2.59,8.74-4.23,14.23-1.78,18.37c3.64,6.15,13.52,4.66,13.63,6.81
		c0.15,2.93-17.94,10.77-26.37,3.56c-6.66-5.7-6.45-20.06-1.78-29.04C748.43,157.19,751.68,153.71,750.5,149.63z"/>
</g>
<g id="c">
	<path d="M833.02,136.59c-7.2,0.33-17.61,9.09-20.74,12.15c-8.51,8.3-14.21,24.11-8.3,31.7c3.82,4.9,12.16,5.96,13.19,6.07
		c2.75,0.32,5.39,0.08,9.48-0.3c3.56-0.32,6.51-0.8,8.59-1.19c-0.72,1.54-2.07,3.97-4.44,6.22c-11.52,10.9-37.84,8.64-46.67-5.63
		c-4.65-7.51-3.04-16.07-2.22-20.44c4.42-23.55,28.75-39.29,44-38.22c1.15,0.08,11.28,0.79,12.58,4.98
		c0.07,0.21,0.46,1.47-0.14,2.58C837.29,136.51,833.86,136.55,833.02,136.59z"/>
</g>
<g id="e_00000060010119515616925040000003474247024437583784_">
	<path d="M927.83,169.19c-2-2.55-14.33,8.26-34.96,12.3c-5.85,1.14-26.26,5.13-32.19-4.13c-2.37-3.71-1.79-8.54-0.55-12.61
		c6.51-0.21,17.75-1.66,28-9.33c2.88-2.16,16.7-12.5,14.22-22.52c-1.11-4.49-5.08-7.21-6.07-7.85c-5.04-3.24-10.6-2.28-14.07-1.63
		c-8.22,1.54-13.42,5.97-20.15,11.7c-4.36,3.71-10.95,10.07-16.89,19.56c-3.93,6.27-6.58,10.61-7.56,17.19
		c-0.52,3.52-1.7,11.49,2.96,17.69c2.59,3.45,6.16,5.26,10.67,6.75c22.6,7.45,45.53-0.99,48.74-2.22
		c11.07-4.24,17.27-9.32,21.33-13.78C922.04,179.5,929.47,171.27,927.83,169.19z M870.79,145.33c6.49-9.58,13.66-13,16.74-14.22
		c3.83-1.52,5.57-1.35,6.81-0.74c2.55,1.24,3.58,4.57,3.7,6.81c0.41,7.41-8.45,14.1-15.7,16.74c-5.37,1.96-13.47,3.02-15.11,0
		C866.23,152.08,868.04,149.4,870.79,145.33z"/>
</g>
</svg>
