<?xml version="1.0" encoding="utf-8"?>
<!-- Generator: Adobe Illustrator 27.0.0, SVG Export Plug-In . SVG Version: 6.00 Build 0)  -->
<svg version="1.1" id="w" xmlns="http://www.w3.org/2000/svg" xmlns:xlink="http://www.w3.org/1999/xlink" x="0px" y="0px"
	 viewBox="0 0 290.83 218.49" style="enable-background:new 0 0 290.83 218.49;" xml:space="preserve">
<path d="M93.46,9.93c-10.93-3.02-42.44,34.87-66.81,90.52c-12.91,29.48-40.64,92.78-18.11,112.37c6.51,5.66,14.95,5.67,20.18,5.68
	c29.85,0.03,59.09-29.2,76.79-72.05c-8.53,26.55-4.38,51.04,10.03,61.56c13.17,9.62,31.15,4.81,41.33,2
	c13.6-3.76,39.92-14.12,81.04-71.63c9.37-13.1,67.5-94.4,49.48-130.37c-1.02-2.03-4-7.98-8-8c-8.4-0.04-13.1,26.03-20.44,49.19
	c-1.59,5.03-22.64,68.97-73.48,112c-11.25,9.52-33.31,28.2-44.7,21.63c-11.93-6.88-7.87-38.98-1.89-58.15
	c5.82-18.62,19.34-43.89,22.3-49.41c6.5-12.14,14.03-24.73,9.43-30.37c-2.07-2.53-5.77-2.66-7.11-2.71
	c-11.98-0.41-21.73,13.17-30.47,25.67C115.2,93.34,98.44,118.9,94.2,125.33c-7.88,11.96-16.68,24.94-30.81,39.56
	c-8.08,8.35-19.87,20.54-24.3,17.93c-1.43-0.84-3.8-4.23,5.93-35.56C52.05,124.6,57.1,108.34,68.42,86
	c8.95-17.66,15.37-36.65,25.56-53.63c1.97-3.28,8.17-13.41,4.44-19.11C98.42,13.26,96.86,10.86,93.46,9.93z"/>
</svg>
